<?xml version="1.0" encoding="UTF-8" standalone="no"?>
<svg
   xmlns:dc="http://purl.org/dc/elements/1.1/"
   xmlns:cc="http://creativecommons.org/ns#"
   xmlns:rdf="http://www.w3.org/1999/02/22-rdf-syntax-ns#"
   xmlns:svg="http://www.w3.org/2000/svg"
   xmlns="http://www.w3.org/2000/svg"
   xmlns:sodipodi="http://sodipodi.sourceforge.net/DTD/sodipodi-0.dtd"
   xmlns:inkscape="http://www.inkscape.org/namespaces/inkscape"
   width="40mm"
   height="40mm"
   viewBox="0 0 40 40"
   version="1.1"
   id="svg8"
   inkscape:version="1.0 (4035a4f, 2020-05-01)"
   sodipodi:docname="gaming-ps.svg">
  <defs
     id="defs2" />
  <sodipodi:namedview
     id="base"
     pagecolor="#ffffff"
     bordercolor="#666666"
     borderopacity="1.0"
     inkscape:pageopacity="0.0"
     inkscape:pageshadow="2"
     inkscape:zoom="2.6494707"
     inkscape:cx="52.053612"
     inkscape:cy="90.937857"
     inkscape:document-units="mm"
     inkscape:current-layer="layer1"
     inkscape:document-rotation="0"
     showgrid="false"
     showguides="true"
     inkscape:guide-bbox="true"
     inkscape:window-width="1252"
     inkscape:window-height="803"
     inkscape:window-x="163"
     inkscape:window-y="23"
     inkscape:window-maximized="0">
    <sodipodi:guide
       position="-17.337688,4.8823346"
       orientation="0,-1"
       id="guide16" />
    <sodipodi:guide
       position="-3.6267613,34.957916"
       orientation="0,-1"
       id="guide18" />
    <sodipodi:guide
       position="4.9536252,36.815526"
       orientation="1,0"
       id="guide20" />
    <sodipodi:guide
       position="35.250615,30.012325"
       orientation="1,0"
       id="guide22" />
    <sodipodi:guide
       id="guide891"
       orientation="0,-1"
       position="-17.160773,0.017167037" />
    <sodipodi:guide
       id="guide893"
       orientation="0,-1"
       position="-3.5383037,39.823084" />
    <sodipodi:guide
       id="guide895"
       orientation="1,0"
       position="0.17691519,36.727068" />
    <sodipodi:guide
       id="guide899"
       orientation="1,0"
       position="40.071289,27.527478" />
    <sodipodi:guide
       position="-14.493693,19.888595"
       orientation="1,0"
       id="guide81" />
  </sodipodi:namedview>
  <metadata
     id="metadata5">
    <rdf:RDF>
      <cc:Work
         rdf:about="">
        <dc:format>image/svg+xml</dc:format>
        <dc:type
           rdf:resource="http://purl.org/dc/dcmitype/StillImage" />
        <dc:title></dc:title>
      </cc:Work>
    </rdf:RDF>
  </metadata>
  <g
     inkscape:label="Layer 1"
     inkscape:groupmode="layer"
     id="layer1"
     transform="translate(-53.672619,-41.577381)">
    <rect
       y="40.957661"
       x="53.333557"
       height="40.968327"
       width="40.857197"
       id="rect856"
       style="fill:#1a1a1a;fill-opacity:1;stroke-width:0.264942" />
    <g
       style="font-style:normal;font-weight:normal;font-size:9.20974px;line-height:1.25;font-family:sans-serif;fill:#ffffff;fill-opacity:1;stroke:none;stroke-width:0.230245"
       id="text14-9"
       transform="matrix(0.60806815,0,0,0.64025149,18.735256,24.132846)"
       aria-label="A">
      <g
         style="font-style:normal;font-weight:normal;font-size:14.9733px;line-height:1.25;font-family:sans-serif;fill:#ffffff;fill-opacity:1;stroke:none;stroke-width:0.0861886"
         id="text313"
         transform="scale(1.0922562,0.91553611)"
         aria-label="d">
        <g
           style="font-style:normal;font-weight:normal;font-size:31.2764px;line-height:1.25;font-family:sans-serif;fill:#ffffff;fill-opacity:1;stroke:none;stroke-width:0.0673923"
           id="text31"
           transform="matrix(0.9681291,0,0,1.0329201,-0.79673832,0)"
           aria-label="c">
          <g
             style="font-style:normal;font-weight:normal;font-size:35.4344px;line-height:1.25;font-family:sans-serif;fill:#ffffff;fill-opacity:1;stroke:none;stroke-width:0.0597"
             id="text897"
             transform="scale(0.95676766,1.0451858)"
             aria-label="y">
            <path
               id="path953"
               style="font-style:normal;font-variant:normal;font-weight:normal;font-stretch:normal;font-family:'Font Logos Technology';-inkscape-font-specification:'Font Logos Technology';fill:#ffffff;stroke-width:0.0597"
               d="m 106.46146,64.83089 q 0.55366,-0.640172 0.12111,-1.436062 -0.43255,-0.79589 -2.35307,-1.436062 -3.78912,-1.33225 -7.716667,-0.934305 -1.834007,0.224925 -2.975935,0.570964 -1.141929,0.328737 -1.141929,0.328737 0,0 -0.0346,0.0173 -0.0346,0 -0.08651,0.0173 -0.05191,0.0173 -0.103812,0.0346 -0.05191,0.0173 -0.08651,0.0346 -0.0346,0 -0.0346,0 0,0 0,0.501756 0,0.484455 0,1.141929 0,0.640172 0,1.141929 0,0.484455 0,0.536361 0,0 0.605568,-0.207624 0.605568,-0.207623 1.470666,-0.519058 0.8824,-0.311436 1.764799,-0.622871 0.899702,-0.311435 1.50527,-0.519058 0.605568,-0.207624 0.605568,-0.207624 0.79589,-0.276831 1.730196,-0.328737 0.934303,-0.05191 1.574473,0.155718 1.21114,0.501756 -0.34603,1.141929 0,0 -1.349557,0.484454 -1.349552,0.484455 -3.09705,1.107325 -1.747497,0.605569 -3.114351,1.090023 -1.349552,0.484455 -1.349552,0.484455 0,0 0,0.328737 0,0.311435 0,0.79589 0,0.484455 0,0.951607 0,0.484455 0,0.79589 0,0.328737 0,0.346039 0,0 1.228438,-0.449851 1.245741,-0.432548 3.045144,-1.072721 1.799403,-0.657474 3.581504,-1.297646 1.782104,-0.657474 3.027844,-1.090023 1.24574,-0.449851 1.24574,-0.449851 0,0 0.25953,-0.103812 0.25953,-0.103811 0.64017,-0.294133 0.38064,-0.190321 0.76129,-0.449851 0.38064,-0.259529 0.62287,-0.588266 z M 93.190859,59.363473 q 2.6645,1.228439 4.429299,0.06921 1.7648,-1.176533 1.7648,-4.463904 0,-3.408484 -1.401459,-5.207888 -1.401458,-1.816705 -4.896452,-2.958633 -1.470666,-0.501757 -3.63341,-1.107325 -2.162744,-0.622871 -4.014053,-0.986212 0,0 0,2.456878 0,2.439575 0,6.055683 0,3.616108 0,7.249518 0,3.616108 0,6.176797 0,0.657474 0,1.176533 0,1.349552 0,1.41876 0,0 0.570964,0.173019 0.570965,0.190322 1.384156,0.449851 0.813192,0.25953 1.643686,0.519059 0.830494,0.259529 1.384156,0.432549 0.570965,0.190321 0.570965,0.190321 0,0 0,-2.058932 0,-2.058933 0,-5.104076 0,-3.045144 0,-6.090287 0,-3.045144 0,-5.104076 0,-2.058933 0,-2.21465 0,-0.726682 0.294133,-1.124627 0.311435,-0.415247 0.830494,-0.25953 0.657474,0.207624 0.865097,0.79589 0.207624,0.588267 0.207624,1.297647 0,0 0,1.003513 0,1.003513 0,2.422273 0,1.41876 0,2.733709 0,0.882399 0,1.453364 0,0.570964 0,0.605568 z m -17.942125,7.716671 q 4.394696,1.384156 8.581768,0.692078 0.08651,-0.0173 0.17302,-0.0346 0.190321,-0.0346 0.363341,-0.06921 0,0 0,-0.276831 0,-0.294133 0,-0.70938 0,-0.432549 0,-0.865098 0,-0.432548 0,-0.70938 0,-0.294133 0,-0.311435 0,0 -0.276831,0.103812 -0.276832,0.103812 -0.692079,0.259529 -0.397944,0.138416 -0.813191,0.294133 -0.415247,0.138416 -0.692078,0.242228 -0.276832,0.08651 -0.276832,0.08651 -0.795889,0.276832 -1.730195,0.328738 -0.934305,0.05191 -1.59178,-0.155718 -1.193834,-0.501757 0.34604,-1.141929 0,0 0.570964,-0.207623 0.588266,-0.207624 1.436062,-0.501757 0.847796,-0.311435 1.695591,-0.605568 0.865098,-0.311435 1.436062,-0.519059 0.588267,-0.207623 0.588267,-0.207623 0,0 0,-0.311435 0,-0.328738 0,-0.813192 0,-0.484455 0,-0.951608 0,-0.484454 0,-0.795889 0,-0.328737 0,-0.363341 0,0 -0.847796,0.294133 -0.830494,0.294133 -2.04163,0.726682 -1.193835,0.432549 -2.38767,0.847795 0,0 -0.0173,0.0173 0,0 -0.0173,0 -0.0173,0 -0.0519,0.0173 -0.0346,0.0173 -0.06921,0.0346 -0.0346,0 -0.05191,0.0173 -0.0173,0 -0.0346,0 -0.0173,0.0173 -0.0346,0.0173 -0.0173,0 -0.0173,0 0,0 -0.0173,0.0173 0,0 0,0 -0.0173,0 -0.0173,0 0,0 -0.0173,0 0,0 0,0 0,0 -0.0173,0.0173 0,0 0,0 0,0 -0.0173,0 0,0 -0.0173,0 0,0 0,0.0173 -0.0173,0 -0.0173,0 -0.0173,0 -0.0346,0 0,0 0,0.0173 -0.05191,0 -0.08651,0.0173 0,0 0,0 -0.0173,0.0173 -0.0173,0.0173 -0.0173,0 -0.0173,0 0,0 0,0 -0.0173,0 -0.0173,0 0,0 0,0 -0.0173,0.0173 -0.0173,0.0173 -0.138416,0.05191 -0.276831,0.103812 -0.311435,0.121113 -0.570965,0.207623 -0.0173,0 -0.0173,0.0173 -0.0173,0 -0.0346,0 -0.0173,0 -0.0346,0.0173 0,0 0,0 -0.0173,0 -0.0173,0 0,0 0,0 -0.0346,0.0173 -0.05191,0.0173 -0.08651,0.0346 -0.155718,0.05191 -0.103812,0.05191 -0.190321,0.08651 -0.103812,0.0346 -0.190322,0.05191 -0.121113,0.05191 -0.224925,0.08651 -0.05191,0.0173 -0.08651,0.0346 0,0 0,0 -0.0173,0 -0.0173,0 0,0 -0.0173,0 -0.0173,0.0173 -0.0346,0.0173 -0.138415,0.05191 -0.138415,0.05191 0,0 -0.536361,0.190321 -0.53636,0.190322 -1.24574,0.536361 -0.709381,0.328737 -1.297647,0.743984 -0.934305,0.726682 -0.519058,1.678289 0.432548,0.934306 2.422273,1.557176 z m 29.465226,1.263042 q -0.53636,0 -0.917,0.397945 -0.38065,0.380643 -0.38065,0.917004 0,0.53636 0.38065,0.917003 0.39794,0.380643 0.917,0.380643 0.51906,0 0.917,-0.380643 0.38065,-0.380643 0.38065,-0.917003 0,-0.519059 -0.38065,-0.899702 -0.39794,-0.415247 -0.917,-0.415247 z m -1.09002,1.314949 q 0,-0.432549 0.32873,-0.761286 0.32874,-0.311435 0.76129,-0.311435 0.41525,0 0.76128,0.311435 0.31144,0.328737 0.31144,0.761286 0,0.449851 -0.32874,0.761286 -0.31143,0.328737 -0.74398,0.328737 -0.43255,0 -0.76129,-0.328737 -0.32873,-0.328737 -0.32873,-0.761286 z m 1.47066,-0.692078 q -0.10381,-0.05191 -0.27683,-0.05191 0,0 -0.0692,0 -0.0519,0 -0.15571,0 -0.0865,0 -0.19033,0 -0.0865,0 -0.15571,0 -0.0519,0 -0.0519,0 0,0 -0.0173,0 0,0 0,0 0,0 -0.0173,0 0,0 0,0 0,0 0,0 0,0 0,0.0173 0,0 0,0 0,0 0,0.0173 0,0 0,0 0,0 0,0 0,0 0,0.207623 0,0.207624 0,0.467153 0,0.276831 0,0.484455 0,0.207623 0,0.224925 0,0 0,0 0,0 0,0 0,0.0173 0,0.0173 0,0 0,0 0,0.0173 0,0.0173 0,0 0,0 0,0 0,0 0.0173,0 0.0173,0 0,0 0,0 0.0173,0 0.0173,0 0,0 0.0173,0 0.0346,0 0.0692,0 0.0346,0 0.0519,0 0.0346,0 0.0346,0 0,0 0,0 0.0173,0 0.0173,0 0.0173,0 0.0173,0 0,0 0,0 0,0 0,-0.0173 0,0 0,0 0,0 0,-0.0173 0,0 0,0 0,0 0,0 0,0 0,-0.06921 0,-0.05191 0,-0.138415 0,-0.06921 0,-0.155718 0,-0.08651 0,-0.138416 0,-0.05191 0,-0.06921 0,0 0.0346,0 0.0519,0 0.10381,0 0.0692,0 0.12111,0 0.0519,0 0.0865,0 0.0519,0 0.0519,0 0.10381,0 0.15572,0.0346 0.0692,0.0346 0.0865,0.155718 0,0 0,0.0173 0,0.0173 0,0.05191 0,0.0346 0,0.06921 0,0.0346 0,0.05191 0,0.0346 0,0.0346 0.0173,0.08651 0.0173,0.103812 0,0.0346 0.0173,0.06921 0,0 0,0 0,0 0,0 0,0 0,0 0,0.0173 0,0.0173 0,0 0,0 0.0173,0 0.0173,0 0,0 0,0 0.0173,0 0.0173,0 0,0 0.0173,0 0.0173,0 0.0519,0 0.0346,0 0.0692,0 0.0346,0 0.0519,0 0.0346,0 0.0346,0 0,0 0,0 0,0 0,0 0.0173,0 0.0173,0 0.0173,0 0.0173,0 0,0 0,-0.0173 0,0 0,0 0,0 0,-0.0173 0,0 0,0 0,0 0,0 0,0 0,-0.0173 0,0 0,0 0,0 0,-0.0173 0,0 0,0 0,0 0,0 0,0 0,0 0,0 0,-0.0173 0,0 0,0 0,0 0,0 0,0 -0.0173,0 0,0 0,-0.0173 0,0 0,0 0,0 0,0 -0.0346,0 -0.0519,-0.05191 0,-0.0346 -0.0173,-0.121113 0,0 0,-0.0173 0,-0.0173 0,-0.05191 0,-0.0173 0,-0.05191 0,-0.0173 0,-0.0346 0,-0.0173 0,-0.0173 0,-0.138416 -0.0519,-0.190321 -0.0346,-0.05191 -0.0865,-0.08651 0.0692,-0.0346 0.10381,-0.103812 0.0692,-0.08651 0.0692,-0.207623 0,-0.25953 -0.22493,-0.363341 z m -0.69208,0.588266 q 0,0 0,-0.06921 0,-0.05191 0,-0.138415 0,-0.08651 0,-0.138416 0,-0.05191 0,-0.06921 0,0 0.0692,0 0.0692,0 0.13842,0 0.0865,0 0.13841,0 0.0692,0 0.0865,0 0.0865,0 0.13842,0.0346 0.0865,0.0346 0.0865,0.17302 0,0.103811 -0.0692,0.155717 -0.0692,0.05191 -0.19032,0.05191 0,0 -0.0346,0 -0.0346,0 -0.10381,0 -0.0519,0 -0.12111,0 -0.0519,0 -0.10381,0 -0.0346,0 -0.0346,0 z" />
          </g>
        </g>
      </g>
    </g>
  </g>
</svg>
