<?xml version="1.0" encoding="UTF-8" standalone="no"?>
<svg
   xmlns:dc="http://purl.org/dc/elements/1.1/"
   xmlns:cc="http://creativecommons.org/ns#"
   xmlns:rdf="http://www.w3.org/1999/02/22-rdf-syntax-ns#"
   xmlns:svg="http://www.w3.org/2000/svg"
   xmlns="http://www.w3.org/2000/svg"
   xmlns:sodipodi="http://sodipodi.sourceforge.net/DTD/sodipodi-0.dtd"
   xmlns:inkscape="http://www.inkscape.org/namespaces/inkscape"
   sodipodi:docname="gaming-twitter-2.svg"
   inkscape:version="1.0 (4035a4f, 2020-05-01)"
   id="svg8"
   version="1.1"
   viewBox="0 0 40 40"
   height="40mm"
   width="40mm">
  <defs
     id="defs2" />
  <sodipodi:namedview
     inkscape:window-maximized="0"
     inkscape:window-y="119"
     inkscape:window-x="204"
     inkscape:window-height="803"
     inkscape:window-width="1252"
     inkscape:guide-bbox="true"
     showguides="true"
     showgrid="false"
     inkscape:document-rotation="0"
     inkscape:current-layer="text27"
     inkscape:document-units="mm"
     inkscape:cy="185.48576"
     inkscape:cx="60.770049"
     inkscape:zoom="1.5606695"
     inkscape:pageshadow="2"
     inkscape:pageopacity="0.0"
     borderopacity="1.0"
     bordercolor="#666666"
     pagecolor="#ffffff"
     id="base">
    <sodipodi:guide
       id="guide16"
       orientation="0,-1"
       position="31.725554,4.9452205" />
    <sodipodi:guide
       id="guide18"
       orientation="0,-1"
       position="32.900574,34.51657" />
    <sodipodi:guide
       id="guide20"
       orientation="1,0"
       position="5.2875923,18.84963" />
    <sodipodi:guide
       id="guide22"
       orientation="1,0"
       position="35.250615,30.012325" />
    <sodipodi:guide
       position="14.91881,-0.34860156"
       orientation="0,-1"
       id="guide891" />
    <sodipodi:guide
       position="13.562555,40.678127"
       orientation="0,-1"
       id="guide893" />
    <sodipodi:guide
       position="-0.5085958,34.51657"
       orientation="1,0"
       id="guide895" />
    <sodipodi:guide
       position="40.3486,27.454636"
       orientation="1,0"
       id="guide899" />
    <sodipodi:guide
       id="guide1116"
       orientation="0,-1"
       position="14.749279,24.233529" />
  </sodipodi:namedview>
  <metadata
     id="metadata5">
    <rdf:RDF>
      <cc:Work
         rdf:about="">
        <dc:format>image/svg+xml</dc:format>
        <dc:type
           rdf:resource="http://purl.org/dc/dcmitype/StillImage" />
        <dc:title></dc:title>
      </cc:Work>
    </rdf:RDF>
  </metadata>
  <g
     transform="translate(-53.672619,-41.577381)"
     id="layer1"
     inkscape:groupmode="layer"
     inkscape:label="Layer 1">
    <rect
       style="fill:#c4716d;fill-opacity:1;stroke-width:0.264942"
       id="rect856"
       width="40.857197"
       height="40.968327"
       x="53.333557"
       y="40.957661" />
    <g
       id="g862"
       transform="translate(-1.2235032,-0.85697528)"
       style="fill:#ffffff">
      <g
         style="font-style:normal;font-weight:normal;font-size:15.2628px;line-height:1.25;font-family:sans-serif;fill:#ffffff;fill-opacity:1;stroke:none;stroke-width:0.381571"
         id="text14"
         transform="scale(1.0145499,0.98565876)"
         aria-label="Q">
        <path
           id="path1129"
           style="font-style:normal;font-variant:normal;font-weight:normal;font-stretch:normal;font-family:'Social Logos';-inkscape-font-specification:'Social Logos';fill:#ffffff;fill-opacity:1;stroke-width:0.381571"
           d="m 68.713627,50.221786 h 0.111788 q 0.394985,0 0.842137,0.186313 0.163956,0.08198 0.365175,0.216124 0.134145,0.09688 0.290649,0.253386 l 0.02981,0.02981 q 0.394985,-0.08198 0.663276,-0.186313 0.350269,-0.134146 0.707991,-0.335364 v 0 q -0.111788,0.380079 -0.424795,0.752706 -0.201218,0.208671 -0.253386,0.245934 -0.126693,0.104335 -0.268291,0.186313 v 0.0075 h 0.0075 q 0.335364,-0.04471 0.566393,-0.104336 0.223576,-0.05962 0.484415,-0.156503 l 0.178861,-0.07453 q -0.156503,0.238481 -0.454605,0.566393 -0.313006,0.313006 -0.4397,0.402437 -0.02981,0.02981 -0.186313,0.141598 h 0.0075 v 0.201219 0.126693 q 0,1.162596 -0.506773,2.392265 -0.201219,0.46951 -0.506773,0.953925 -0.171408,0.268291 -0.402437,0.566393 -0.163956,0.208671 -0.491868,0.536583 l -0.283196,0.260838 q -0.447152,0.365175 -0.700539,0.506773 -0.268291,0.171409 -0.61856,0.335364 -0.268292,0.126694 -0.745254,0.290649 -0.931568,0.268292 -1.810967,0.268292 h -0.08198 q -1.594844,0 -3.003374,-0.782517 -0.141598,-0.08198 -0.305554,-0.186313 v 0 q 0.260839,0.02236 0.454605,0.02236 h 0.05962 q 1.199858,0 2.258119,-0.633465 0.260839,-0.163956 0.417342,-0.29065 h -0.0075 q -0.424795,0 -0.886853,-0.208671 -0.201218,-0.09688 -0.462057,-0.298101 -0.253386,-0.238481 -0.305554,-0.320459 -0.09688,-0.119241 -0.208671,-0.313007 -0.08943,-0.186313 -0.149051,-0.357722 h 0.0075 v 0 q 0.216123,0.03726 0.350269,0.03726 h 0.02981 q 0.305554,0 0.588751,-0.07453 v 0 q -0.186314,-0.04472 -0.327912,-0.09688 -0.760159,-0.290649 -1.147691,-0.99864 -0.260839,-0.484415 -0.260839,-1.050808 v 0 q 0.208671,0.104336 0.402437,0.163956 0.327912,0.104336 0.573846,0.104336 -0.141599,-0.09688 -0.327912,-0.275744 -0.223576,-0.238482 -0.335364,-0.4397 -0.290649,-0.506773 -0.290649,-1.088071 0,-0.573845 0.283196,-1.080618 v 0 h 0.0075 q 0.163955,0.193766 0.394984,0.432247 0.394985,0.38008 0.603656,0.536583 0.290649,0.223576 0.514225,0.357722 0.544035,0.342817 1.095523,0.544035 0.32046,0.134146 0.916663,0.268292 0.231028,0.05217 0.700538,0.09688 l 0.231029,0.0149 q -0.05217,-0.253387 -0.05217,-0.46951 v -0.07453 q 0,-0.335364 0.149051,-0.745254 0.342817,-0.819779 1.170049,-1.192406 0.424794,-0.171408 0.782516,-0.171408 z" />
      </g>
      <g
         style="font-style:normal;font-weight:normal;font-size:27.5869px;line-height:1.25;font-family:sans-serif;fill:#ffffff;fill-opacity:1;stroke:none;stroke-width:0.689675"
         id="text27"
         transform="scale(1.0203436,0.98006201)"
         aria-label="d">
        <path
           id="path1126"
           style="font-style:normal;font-variant:normal;font-weight:normal;font-stretch:normal;font-family:'video games';-inkscape-font-specification:'video games';fill:#ffffff;fill-opacity:1;stroke-width:0.689675"
           d="m 76.867069,76.088662 q 0.282874,-0.660038 0.983322,-1.805002 0.700449,-1.171905 0.969852,-1.805002 h -4.09493 q 1.589479,2.909555 2.141756,3.610004 z m 4.108401,-5.765231 q 2.41116,-1.198845 3.515713,-2.047465 -0.404105,-0.215523 -1.724181,-1.010263 -1.064143,-0.633098 -1.791532,-0.956382 0.01347,0.713919 -0.01347,2.155227 -0.02694,1.225785 0.01347,1.858883 z m -8.311093,-4.01411 q -1.427838,0.592688 -3.610004,2.060936 0.350224,0.175112 1.831942,1.077613 1.131494,0.686979 1.778062,0.875561 -0.01347,-0.511866 0,-1.885823 0.01347,-1.508659 0,-2.128287 z m 3.919819,0 q -0.969852,0.107762 -1.468249,0.7678 -0.444515,0.592687 -0.363694,1.400897 0.06735,0.79474 0.592687,1.347017 0.565747,0.592687 1.427838,0.592687 0.983322,0 1.535599,-0.673508 0.484926,-0.619628 0.444515,-1.481719 -0.04041,-0.87556 -0.592687,-1.427837 -0.606157,-0.619628 -1.576009,-0.525337 z m 2.236047,-2.141756 q -0.296344,-0.619628 -2.047465,-3.623475 -1.953174,3.434893 -2.047465,3.623475 z m 0.592687,6.748553 q -0.296343,0.660038 -0.04041,2.949967 0.228993,2.020525 -0.444516,2.613212 -0.431045,0.377165 -2.101345,0.404105 -1.710712,0.02694 -2.209108,-0.404105 -0.592687,-0.525337 -0.444515,-2.46504 0.188582,-2.478511 0.05388,-3.098139 -0.02694,-0.01347 -3.205899,0.04041 -1.939704,0.02694 -2.559332,-0.633098 0.02694,-0.309814 -0.175112,-2.182167 -0.134702,-1.333546 0.282874,-1.926234 0.525336,-0.767799 2.518921,-0.565747 2.518921,0.255933 3.138548,0.08082 0,0.01347 -0.05388,-3.475303 -0.04041,-2.114816 1.037203,-2.384219 0.86209,-0.228993 1.966644,-0.175112 1.266195,0.04041 1.751121,0.457985 0.592688,0.525337 0.444516,2.465041 -0.188582,2.491981 -0.05388,3.111608 0.511867,0.121232 2.869146,-0.05388 1.980114,-0.134702 2.599742,0.350224 0.538807,0.404105 0.579217,2.155226 0.05388,1.697241 -0.377165,2.236048 -0.592687,0.740859 -2.518921,0.565747 -2.45157,-0.228993 -3.057728,-0.06735 z M 75.600873,58.792969 q -1.791532,0.202052 -3.030787,0.781269 -2.4381,1.144964 -3.879408,3.313661 -1.60295,2.38422 -1.58948,5.482358 0.01347,4.014109 2.828735,6.842844 2.236048,2.222578 5.212955,2.694034 2.761384,0.444515 5.428477,-0.727389 2.640152,-1.158435 4.229632,-3.502244 1.710711,-2.49198 1.65683,-5.603589 -0.08082,-4.337393 -3.178959,-7.044897 -3.138549,-2.747914 -7.677995,-2.236047 z" />
      </g>
    </g>
  </g>
</svg>
