<?xml version="1.0" encoding="UTF-8" standalone="no"?>
<svg
   xmlns:dc="http://purl.org/dc/elements/1.1/"
   xmlns:cc="http://creativecommons.org/ns#"
   xmlns:rdf="http://www.w3.org/1999/02/22-rdf-syntax-ns#"
   xmlns:svg="http://www.w3.org/2000/svg"
   xmlns="http://www.w3.org/2000/svg"
   xmlns:sodipodi="http://sodipodi.sourceforge.net/DTD/sodipodi-0.dtd"
   xmlns:inkscape="http://www.inkscape.org/namespaces/inkscape"
   width="40mm"
   height="40mm"
   viewBox="0 0 40 40"
   version="1.1"
   id="svg8"
   inkscape:version="1.0 (4035a4f, 2020-05-01)"
   sodipodi:docname="gaming-nintendo.svg">
  <defs
     id="defs2" />
  <sodipodi:namedview
     id="base"
     pagecolor="#ffffff"
     bordercolor="#666666"
     borderopacity="1.0"
     inkscape:pageopacity="0.0"
     inkscape:pageshadow="2"
     inkscape:zoom="2.0315167"
     inkscape:cx="79.376446"
     inkscape:cy="114.77165"
     inkscape:document-units="mm"
     inkscape:current-layer="text14-9"
     inkscape:document-rotation="0"
     showgrid="false"
     showguides="true"
     inkscape:guide-bbox="true"
     inkscape:window-width="1252"
     inkscape:window-height="803"
     inkscape:window-x="163"
     inkscape:window-y="23"
     inkscape:window-maximized="0">
    <sodipodi:guide
       position="31.725554,4.9452205"
       orientation="0,-1"
       id="guide16" />
    <sodipodi:guide
       position="32.900574,34.51657"
       orientation="0,-1"
       id="guide18" />
    <sodipodi:guide
       position="5.2875923,18.84963"
       orientation="1,0"
       id="guide20" />
    <sodipodi:guide
       position="35.250615,30.012325"
       orientation="1,0"
       id="guide22" />
    <sodipodi:guide
       id="guide891"
       orientation="0,-1"
       position="14.91881,-0.34860156" />
    <sodipodi:guide
       id="guide893"
       orientation="0,-1"
       position="13.562555,40.678127" />
    <sodipodi:guide
       id="guide895"
       orientation="1,0"
       position="-0.5085958,34.51657" />
    <sodipodi:guide
       id="guide899"
       orientation="1,0"
       position="40.3486,27.454636" />
  </sodipodi:namedview>
  <metadata
     id="metadata5">
    <rdf:RDF>
      <cc:Work
         rdf:about="">
        <dc:format>image/svg+xml</dc:format>
        <dc:type
           rdf:resource="http://purl.org/dc/dcmitype/StillImage" />
        <dc:title />
      </cc:Work>
    </rdf:RDF>
  </metadata>
  <g
     inkscape:label="Layer 1"
     inkscape:groupmode="layer"
     id="layer1"
     transform="translate(-53.672619,-41.577381)">
    <rect
       y="40.957661"
       x="53.333557"
       height="40.968327"
       width="40.857197"
       id="rect856"
       style="fill:#d40000;fill-opacity:1;stroke-width:0.264942" />
    <g
       style="font-style:normal;font-weight:normal;font-size:9.20974px;line-height:1.25;font-family:sans-serif;fill:#ffffff;fill-opacity:1;stroke:none;stroke-width:0.230245"
       id="text14-9"
       transform="scale(0.94590275,1.0571911)"
       aria-label="A">
      <path
         id="path289"
         style="font-style:normal;font-variant:normal;font-weight:normal;font-stretch:normal;font-family:'Game Logos';-inkscape-font-specification:'Game Logos';fill:#ffffff;stroke-width:0.230245"
         d="m 64.716809,53.457658 h 26.801782 q 1.843746,0 3.255786,1.259144 1.349083,1.358077 1.349083,3.183836 0,2.041612 -1.636887,3.417677 -1.362574,1.007315 -2.949995,1.007315 H 64.770772 q -2.113563,0 -3.597554,-1.582924 -1.025303,-1.290623 -1.025303,-2.842068 v -0.05396 q 0,-1.974158 1.672863,-3.417677 1.376064,-0.97134 2.896031,-0.97134 z m -3.453652,4.44298 q 0,2.010134 1.870728,2.98597 0.782468,0.341768 1.582924,0.341768 h 26.837757 q 1.884219,0 2.967983,-1.546948 0.485669,-0.831935 0.485669,-1.798778 0,-1.987649 -1.870728,-2.98597 -0.836431,-0.341768 -1.636887,-0.341768 H 64.770772 q -2.019127,0 -3.093897,1.672863 -0.413718,0.795959 -0.413718,1.672863 z m 31.640492,-2.410361 q 0.607087,0 0.80945,0.647559 0.01799,0.06745 0.01799,0.143903 v 0.03598 q 0,0.710517 -0.845426,0.827438 -0.584602,0 -0.80945,-0.665548 l -0.01799,-0.16189 q 0,-0.571112 0.611584,-0.791462 0.08094,-0.03598 0.233841,-0.03598 z m -0.665548,0.863413 q 0,0.571111 0.683536,0.647559 0.548627,0 0.64756,-0.683535 -0.08544,-0.683535 -0.64756,-0.683535 h -0.05396 q -0.512651,0 -0.629572,0.611584 z M 63.745469,55.796069 h 1.259144 l 1.816765,2.896031 v -2.860056 q 0.0045,-0.03598 0.03598,-0.03598 h 1.205181 q 0.03598,0.0045 0.03598,0.03598 v 4.101212 q 0,0.03598 -0.03598,0.03598 h -1.223169 q -0.08544,-0.06745 -1.546948,-2.464325 l -0.287805,-0.431706 v 2.860055 q 0,0.03598 -0.03598,0.03598 h -1.223169 q -0.03598,0 -0.03598,-0.03598 v -4.101212 q 0.0045,-0.03598 0.03598,-0.03598 z m 5.108528,0 h 1.187193 q 0.03597,0.0045 0.03597,0.03598 v 0.773474 q 0,0.03598 -0.03597,0.03598 h -1.187193 q -0.03598,0 -0.03598,-0.03598 v -0.773474 q 0.0045,-0.03598 0.03598,-0.03598 z m 18.509418,0 h 1.169205 q 0.03598,0.0045 0.03598,0.03598 v 4.101212 q 0,0.03598 -0.03598,0.03598 h -1.169205 q -0.03598,0 -0.03598,-0.03598 V 59.82533 h -0.01799 q -0.422713,0.233841 -0.80945,0.233841 -0.953352,0 -1.403046,-1.007315 -0.07195,-0.242835 -0.07195,-0.48567 v -0.03598 q 0,-0.795959 0.827437,-1.29512 0.337271,-0.161889 0.64756,-0.161889 0.359755,0 0.827437,0.251828 v -1.492985 q 0.0045,-0.03598 0.03598,-0.03598 z m 5.25243,0.03598 h 0.269816 q 0.395731,0 0.395731,0.269817 v 0.03598 q -0.05846,0.233841 -0.233841,0.233841 v 0.01799 l 0.233841,0.359756 v 0.03598 h -0.125914 q -0.04497,-0.03148 -0.269817,-0.413719 h -0.16189 v 0.377744 q 0,0.03598 -0.03597,0.03598 h -0.07195 q -0.03598,0 -0.03598,-0.03598 V 55.86802 q 0.0045,-0.03598 0.03598,-0.03598 z m 0.107926,0.125915 v 0.287804 h 0.269817 q 0.09893,0 0.125914,-0.07195 v -0.125915 q -0.02698,-0.08994 -0.233841,-0.08994 z m -17.574054,0.269816 h 1.187193 q 0.03598,0.0045 0.03598,0.03598 v 0.521645 h 0.64756 q 0.03597,0.0045 0.03597,0.03598 v 0.341767 q 0,0.03598 -0.03597,0.03598 h -0.64756 v 2.734141 q 0,0.03598 -0.03598,0.03598 h -1.187193 q -0.03597,0 -0.03597,-0.03598 v -2.734141 h -0.64756 q -0.03598,0 -0.03598,-0.03598 v -0.341767 q 0.0045,-0.03598 0.03598,-0.03598 h 0.64756 v -0.521645 q 0.0045,-0.03598 0.03597,-0.03598 z m 15.66735,0.773474 q 1.169206,0 1.726827,1.043291 0.08994,0.247332 0.08994,0.48567 v 0.07195 q 0,0.993825 -1.277131,1.45701 -0.251829,0.05396 -0.557621,0.07195 -1.137727,0 -1.708839,-1.007315 -0.08994,-0.20686 -0.125914,-0.557621 0,-0.993825 1.223168,-1.474998 0.38224,-0.08994 0.629572,-0.08994 z m -12.051807,0.01799 q 1.070272,0 1.654875,0.935364 0.16189,0.292302 0.16189,0.629572 l -0.03598,0.01799 h -2.320423 v 0.629572 q 0.05846,0.557621 0.539634,0.557621 0.503657,0 0.503657,-0.773474 l 0.03598,-0.01799 h 1.169205 l 0.03598,0.01799 q -0.220351,0.584603 -0.791462,0.881401 -0.454192,0.233841 -0.899389,0.233841 h -0.197866 q -0.903885,0 -1.510973,-0.80945 -0.233841,-0.38224 -0.233841,-0.737499 0,-0.953352 1.13323,-1.439021 0.337271,-0.125915 0.755487,-0.125915 z m -5.810051,0.05396 h 0.16189 q 0.656554,0 1.115242,0.629572 0.197865,0.301295 0.197865,0.755486 v 1.474997 q 0,0.03598 -0.03597,0.03598 h -1.169205 q -0.03598,0 -0.03598,-0.03598 v -1.636887 q 0,-0.476676 -0.359755,-0.629572 -0.04497,0 -0.215854,-0.03598 -0.593596,0.107927 -0.593596,0.48567 v 1.816765 q 0,0.03598 -0.03598,0.03598 h -1.187193 q -0.03598,0 -0.03598,-0.03598 V 57.23509 q 0.0045,-0.03598 0.03598,-0.03598 h 1.187193 q 0.03598,0.0045 0.03598,0.03598 v 0.233842 q 0.490167,-0.395731 0.935364,-0.395731 z m 10.199067,0 h 0.16189 q 0.679039,0 1.151218,0.683535 0.16189,0.310289 0.16189,0.80945 v 1.36707 q 0,0.03598 -0.03598,0.03598 h -1.187193 q -0.03598,0 -0.03598,-0.03598 v -1.816765 q 0,-0.368749 -0.557621,-0.48567 -0.422712,0 -0.593596,0.431707 -0.01799,0.116921 -0.01799,0.233841 0,0.458688 0.01799,1.654875 l -0.03598,0.01799 h -1.187193 q -0.03598,0 -0.03598,-0.03598 V 57.23509 q 0.0045,-0.03598 0.03598,-0.03598 h 1.187193 q 0.03598,0.0045 0.03598,0.03598 v 0.233842 q 0.472179,-0.395731 0.935364,-0.395731 z m -14.300279,0.125914 h 1.187193 q 0.03597,0.0045 0.03597,0.03598 v 2.698166 q 0,0.03598 -0.03597,0.03598 h -1.187193 q -0.03598,0 -0.03598,-0.03598 V 57.23509 q 0.0045,-0.03598 0.03598,-0.03598 z m 21.423437,0.97134 v 0.863413 q 0,0.593596 0.359756,0.719511 l 0.125914,0.01799 h 0.01799 q 0.391234,0 0.503657,-0.413718 0.01799,-0.07195 0.01799,-0.143903 v -1.277131 q -0.05396,-0.593597 -0.503657,-0.593597 -0.521646,0 -0.521646,0.827438 z M 78.225626,57.954601 v 0.197866 h 1.043291 v -0.07195 q 0,-0.719511 -0.539633,-0.719511 -0.328277,0 -0.48567,0.395731 -0.01799,0.121417 -0.01799,0.197865 z m 8.130474,0.08994 v 1.043291 q 0,0.337271 0.269816,0.467682 0.08544,0.03148 0.215854,0.05396 0.436203,0 0.485669,-0.503657 v -1.079267 q -0.05396,-0.485669 -0.431706,-0.485669 H 86.787806 Q 86.3561,57.608337 86.3561,58.04454 Z" />
    </g>
  </g>
</svg>
