<?xml version="1.0" encoding="UTF-8" standalone="no"?>
<svg
   xmlns:dc="http://purl.org/dc/elements/1.1/"
   xmlns:cc="http://creativecommons.org/ns#"
   xmlns:rdf="http://www.w3.org/1999/02/22-rdf-syntax-ns#"
   xmlns:svg="http://www.w3.org/2000/svg"
   xmlns="http://www.w3.org/2000/svg"
   xmlns:sodipodi="http://sodipodi.sourceforge.net/DTD/sodipodi-0.dtd"
   xmlns:inkscape="http://www.inkscape.org/namespaces/inkscape"
   width="40mm"
   height="40mm"
   viewBox="0 0 40 40"
   version="1.1"
   id="svg8"
   inkscape:version="1.0 (4035a4f, 2020-05-01)"
   sodipodi:docname="wrestling-wwe.svg">
  <defs
     id="defs2" />
  <sodipodi:namedview
     id="base"
     pagecolor="#ffffff"
     bordercolor="#666666"
     borderopacity="1.0"
     inkscape:pageopacity="0.0"
     inkscape:pageshadow="2"
     inkscape:zoom="1.1807915"
     inkscape:cx="39.723302"
     inkscape:cy="-2.7227596"
     inkscape:document-units="mm"
     inkscape:current-layer="g1674"
     inkscape:document-rotation="0"
     showgrid="false"
     showguides="true"
     inkscape:guide-bbox="true"
     inkscape:window-width="1252"
     inkscape:window-height="803"
     inkscape:window-x="163"
     inkscape:window-y="23"
     inkscape:window-maximized="0">
    <sodipodi:guide
       position="31.725554,4.9452205"
       orientation="0,-1"
       id="guide16" />
    <sodipodi:guide
       position="32.900574,34.51657"
       orientation="0,-1"
       id="guide18" />
    <sodipodi:guide
       position="5.2875923,18.84963"
       orientation="1,0"
       id="guide20" />
    <sodipodi:guide
       position="35.250615,30.012325"
       orientation="1,0"
       id="guide22" />
    <sodipodi:guide
       id="guide891"
       orientation="0,-1"
       position="14.91881,-0.34860156" />
    <sodipodi:guide
       id="guide893"
       orientation="0,-1"
       position="13.562555,40.678127" />
    <sodipodi:guide
       id="guide895"
       orientation="1,0"
       position="-0.5085958,34.51657" />
    <sodipodi:guide
       id="guide899"
       orientation="1,0"
       position="40.3486,27.454636" />
  </sodipodi:namedview>
  <metadata
     id="metadata5">
    <rdf:RDF>
      <cc:Work
         rdf:about="">
        <dc:format>image/svg+xml</dc:format>
        <dc:type
           rdf:resource="http://purl.org/dc/dcmitype/StillImage" />
        <dc:title></dc:title>
      </cc:Work>
    </rdf:RDF>
  </metadata>
  <g
     inkscape:label="Layer 1"
     inkscape:groupmode="layer"
     id="layer1"
     transform="translate(-53.672619,-41.577381)">
    <rect
       y="40.957661"
       x="53.333557"
       height="40.968327"
       width="40.857197"
       id="rect856"
       style="fill:#1a1a1a;fill-opacity:1;stroke-width:0.264942" />
    <g
       transform="matrix(0.33072917,0,0,-0.33072917,-313.86846,151.61177)"
       id="g1678">
      <g
         transform="scale(0.1)"
         id="g1676">
        <g
           fill="#231f20"
           id="g1674">
          <g
             transform="matrix(0.0927636,0,0,0.08655136,11220.025,2116.466)"
             id="g1755">
            <path
               transform="translate(2.9732284e-4,-3.4645668e-5)"
               id="path1646"
               fill="#ee2624"
               d="m 0,2267.1 c 896.22,868.38 3040,1565 5295.5,1856.6 418.74,54.13 835.99,95.78 1243.9,127 15.17,1.17 138.58,6.53 138.58,6.53 l 187.14,-431.69 227.53,459.32 c 0,0 174.64,11.47 180.71,11.76 1150.9,56.22 2180.4,33.7 2890.9,-16.95 -183.4,-396.1 -586.8,-1256.2 -586.8,-1256.2 -667.2,218.7 -2739.2,458.5 -4747.2,293.7 -2444.8,-200.6 -4580,-955 -4830,-1050" />
            <path
               style="fill:#ffffff"
               id="path1648"
               d="M 6869,3876.6 5346.1,7615.3 3823.3,3876.6 172.3,11342 1587.3,7407.1 3777.6,1740.4 5346.1,5292.5 6914.7,1740.4 9105,7407.1 l 1415,3935 -3651,-7465.5" />
            <path
               style="fill:#ffffff"
               id="path1650"
               d="M 9755.7,11331 6935.8,7626.1 5351.1,11229 3766.5,7626.1 946.6,11331 3787.6,5725.5 5351.1,9738.3 6914.7,5725.5 9755.7,11331" />
            <path
               id="path1670"
               d="m 7685,2779 v 209.03 h -78.08 V 3016 h 187.85 v -27.97 h -78.4 V 2779 H 7685" />
            <path
               id="path1672"
               d="m 7825.9,2779 v 237 h 47.2 l 56.1,-167.81 c 5.17,-15.62 8.94,-27.32 11.32,-35.07 2.69,8.62 6.89,21.27 12.6,37.98 l 56.75,164.9 h 42.19 v -237 h -30.22 v 198.36 L 7952.97,2779 h -28.29 l -68.55,201.75 V 2779 h -30.23" />
          </g>
        </g>
      </g>
    </g>
  </g>
</svg>
