<?xml version="1.0" encoding="UTF-8" standalone="no"?>
<svg
   xmlns:dc="http://purl.org/dc/elements/1.1/"
   xmlns:cc="http://creativecommons.org/ns#"
   xmlns:rdf="http://www.w3.org/1999/02/22-rdf-syntax-ns#"
   xmlns:svg="http://www.w3.org/2000/svg"
   xmlns="http://www.w3.org/2000/svg"
   xmlns:sodipodi="http://sodipodi.sourceforge.net/DTD/sodipodi-0.dtd"
   xmlns:inkscape="http://www.inkscape.org/namespaces/inkscape"
   width="40mm"
   height="40mm"
   viewBox="0 0 40 40"
   version="1.1"
   id="svg8"
   inkscape:version="1.0 (4035a4f, 2020-05-01)"
   sodipodi:docname="comics-dc.svg">
  <defs
     id="defs2" />
  <sodipodi:namedview
     id="base"
     pagecolor="#ffffff"
     bordercolor="#666666"
     borderopacity="1.0"
     inkscape:pageopacity="0.0"
     inkscape:pageshadow="2"
     inkscape:zoom="1.3145537"
     inkscape:cx="38.495205"
     inkscape:cy="70.238254"
     inkscape:document-units="mm"
     inkscape:current-layer="layer1"
     inkscape:document-rotation="0"
     showgrid="false"
     showguides="true"
     inkscape:guide-bbox="true"
     inkscape:window-width="1252"
     inkscape:window-height="803"
     inkscape:window-x="163"
     inkscape:window-y="23"
     inkscape:window-maximized="0">
    <sodipodi:guide
       position="31.725554,4.9452205"
       orientation="0,-1"
       id="guide16" />
    <sodipodi:guide
       position="32.900574,34.51657"
       orientation="0,-1"
       id="guide18" />
    <sodipodi:guide
       position="5.2875923,18.84963"
       orientation="1,0"
       id="guide20" />
    <sodipodi:guide
       position="35.250615,30.012325"
       orientation="1,0"
       id="guide22" />
    <sodipodi:guide
       id="guide891"
       orientation="0,-1"
       position="14.91881,-0.34860156" />
    <sodipodi:guide
       id="guide893"
       orientation="0,-1"
       position="13.562555,40.678127" />
    <sodipodi:guide
       id="guide895"
       orientation="1,0"
       position="-0.5085958,34.51657" />
    <sodipodi:guide
       id="guide899"
       orientation="1,0"
       position="40.3486,27.454636" />
  </sodipodi:namedview>
  <metadata
     id="metadata5">
    <rdf:RDF>
      <cc:Work
         rdf:about="">
        <dc:format>image/svg+xml</dc:format>
        <dc:type
           rdf:resource="http://purl.org/dc/dcmitype/StillImage" />
        <dc:title></dc:title>
      </cc:Work>
    </rdf:RDF>
  </metadata>
  <g
     inkscape:label="Layer 1"
     inkscape:groupmode="layer"
     id="layer1"
     transform="translate(-53.672619,-41.577381)">
    <rect
       y="40.957661"
       x="53.333557"
       height="40.968327"
       width="40.857197"
       id="rect856"
       style="fill:#466ebf;fill-opacity:1;stroke-width:0.264942" />
    <g
       style="fill:#ffffff"
       id="g935"
       transform="matrix(0.03527778,0,0,-0.03527778,-23.757807,136.73003)">
      <path
         d="m 2550.8945,2216.4988 c 8.2464,-6.0942 16.6694,-11.9597 24.8913,-18.0791 1.7884,-1.2051 1.7565,-3.503 1.821,-5.4261 -0.016,-67.9915 0,-135.9911 -0.01,-203.9908 14.1583,-0.034 28.3086,-0.017 42.4578,-0.011 8.5686,0 17.0703,3.3511 23.3603,9.127 7.2106,6.4711 11.4228,16.0394 11.3495,25.695 0.017,52.6867 0.025,105.3736 0,158.0604 0,8.6668 -3.3835,17.2838 -9.3847,23.5885 -6.5933,7.1892 -16.3966,11.3062 -26.1662,11.0897 -22.7744,-0.062 -45.5475,0.049 -68.321,-0.056 z m -120.2128,10.0158 c -19.8056,-58.5771 -23.5835,-122.3245 -11.3427,-182.8706 6.8825,-33.9125 18.8029,-66.8113 35.3275,-97.2601 4.3076,-7.7161 8.4787,-15.5839 13.6689,-22.7478 0.385,0.1351 1.1395,0.4058 1.5164,0.5416 0.8982,2.4831 0.2328,5.2743 0.4168,7.8759 -0.01,90.4453 0.01,180.891 -0.01,271.3449 0.3048,2.4977 -1.5801,4.3314 -3.4576,5.6094 -11.0532,7.8594 -21.9627,15.9103 -33.0167,23.7697 -1.9248,-1.5485 -2.3026,-4.0775 -3.1044,-6.263 z m 655.9815,41.8676 c -5.7439,-36.0189 -11.4646,-72.0376 -17.2231,-108.0564 -0.057,-1.763 -1.4773,-3.3115 -3.3208,-3.0493 -28.382,-0.071 -56.7622,0.011 -85.1423,-0.039 -1.0985,0.081 -2.3016,-0.039 -3.2578,0.5744 -1.0023,1.1177 -0.8496,2.6974 -0.8893,4.0692 0.072,18.2102 -0.025,36.4184 0.048,54.6182 -34.4608,0.056 -68.9299,0.09 -103.399,-0.015 7.8676,-5.5614 15.6013,-11.3228 23.4857,-16.8842 1.6928,-1.1262 3.4191,-2.7373 3.233,-4.9705 0.048,-56.9245 0,-113.849 0.025,-170.7735 0.01,-5.139 1.1237,-10.2781 3.3208,-14.9384 5.4236,-11.7537 17.8968,-19.8128 30.9077,-19.9148 14.1346,-0.034 28.267,-0.034 42.4017,0.011 0.01,17.2195 -0.015,34.439 0.01,51.6502 -0.249,1.9565 1.3329,3.8235 3.4024,3.4156 30.9873,0.056 61.9829,-0.011 92.9701,0.031 1.2682,-0.054 3.1282,0.095 3.6745,-1.3883 0.7218,-2.4811 0.3535,-5.1307 0.4331,-7.6908 0.023,-30.6322 -0.057,-61.2663 0.032,-91.8901 -0.3683,-1.9233 2.3435,-2.1377 2.8081,-0.3914 16.5807,29.5394 28.6604,61.5682 36.0008,94.596 17.223,77.2224 7.7337,160.1666 -27.2816,231.2634 -0.7533,-0.073 -1.5085,-0.1436 -2.2368,-0.2227 z m -446.2782,176.2622 c -49.486,-18.9117 -94.5125,-49.113 -130.8983,-87.438 -12.8425,-13.731 -24.9877,-28.2156 -35.3358,-43.9095 0.9312,-0.5827 1.9094,-1.1884 3.0726,-1.0365 68.2005,0.022 136.4009,0.022 204.5921,0.011 4.1871,0.2164 7.1647,-3.0951 10.3556,-5.2349 21.6759,-15.6459 43.3266,-31.3334 65.0171,-46.9648 2.197,-1.5715 5.1663,-3.2408 4.8524,-6.4065 0.097,-99.7496 -0.01,-199.5158 0.048,-299.2737 0.3538,-2.608 -1.0503,-4.9703 -3.2558,-6.3024 -23.921,-17.1805 -47.7061,-34.5431 -71.627,-51.7148 -2.6784,-2.1375 -6.2231,-1.5544 -9.3931,-1.6277 -61.7904,0.011 -123.5811,0 -185.3723,0.011 -1.54,0.4056 -2.9997,-1.5235 -1.5718,-2.6164 46.1486,-57.4283 110.7952,-99.9175 182.0603,-119.4747 72.667,-20.1321 151.7851,-16.6286 222.255,10.2046 58.8484,22.2467 111.5011,60.4113 150.8477,109.2845 1.381,1.062 -0.057,3.0165 -1.5546,2.6019 -57.2602,0 -114.5268,-0.025 -171.7849,0.011 -2.9922,-0.2163 -5.319,1.8839 -7.5727,3.4953 -23.3582,16.9156 -46.7581,33.7764 -70.11,50.6924 -2.5905,1.7548 -2.061,5.2015 -2.1009,7.8824 0.057,98.9357 -0.017,197.8797 0.032,296.8154 -0.1841,2.0272 1.0442,3.7902 2.6867,4.8434 24.0173,17.3382 48.0116,34.7179 72.0268,52.0499 1.6781,1.2593 3.7622,1.8337 5.8651,1.7463 26.7354,-0.017 53.473,-0.011 80.2083,0 2.2787,0.1044 4.5574,-0.5496 6.3778,-1.9461 11.3349,-8.2446 22.7659,-16.3745 34.0506,-24.6897 4.2917,8.0364 7.6606,16.5409 11.8162,24.648 0.8998,1.7006 2.9839,2.0357 4.75,1.9878 16.3085,-0.017 32.6235,0.011 48.9322,-0.022 1.1465,-0.152 2.109,0.4622 3.0633,1.0199 -10.4268,15.8707 -22.7326,30.4656 -35.7121,44.3258 -43.4374,45.6495 -99.2203,79.6264 -160.0168,96.8854 -73.9351,21.2159 -154.8255,17.8335 -226.6032,-9.8472 z m 115.3595,52.1601 c 69.3944,2.4103 139.3685,-14.2743 199.964,-48.0514 47.8818,-26.515 89.9299,-63.3393 122.4906,-107.1864 23.6721,-31.8435 42.3954,-67.3524 55.1176,-104.8864 25.0113,-73.3634 26.7752,-154.32 5.2208,-228.7347 -17.8467,-62.0238 -51.9706,-119.261 -97.8562,-164.8202 -46.685,-46.4968 -105.5396,-80.8319 -169.2571,-98.2824 -73.4371,-20.267 -152.9485,-18.2895 -225.216,5.849 -40.669,13.4935 -78.9974,33.9125 -112.9132,59.9796 -43.9425,33.6896 -80.4495,76.9292 -106.1426,125.8424 -34.6458,65.2937 -49.1648,140.7719 -42.0177,214.2123 3.2973,34.8387 11.4791,69.2215 24.2097,101.8393 20.6474,52.976 53.3922,101.2273 94.9684,140.1642 41.0865,38.581 90.7808,68.0642 144.5194,85.4587 34.5089,11.2042 70.629,17.5149 106.9123,18.616"
         style="fill:#ffffff;fill-opacity:1;fill-rule:nonzero;stroke:none;stroke-width:0.208693"
         id="path945" />
    </g>
  </g>
</svg>
