<?xml version="1.0" encoding="UTF-8" standalone="no"?>
<svg
   xmlns:dc="http://purl.org/dc/elements/1.1/"
   xmlns:cc="http://creativecommons.org/ns#"
   xmlns:rdf="http://www.w3.org/1999/02/22-rdf-syntax-ns#"
   xmlns:svg="http://www.w3.org/2000/svg"
   xmlns="http://www.w3.org/2000/svg"
   xmlns:sodipodi="http://sodipodi.sourceforge.net/DTD/sodipodi-0.dtd"
   xmlns:inkscape="http://www.inkscape.org/namespaces/inkscape"
   width="40mm"
   height="40mm"
   viewBox="0 0 40 40"
   version="1.1"
   id="svg8"
   inkscape:version="1.0 (4035a4f, 2020-05-01)"
   sodipodi:docname="gaming-sega.svg">
  <defs
     id="defs2" />
  <sodipodi:namedview
     id="base"
     pagecolor="#ffffff"
     bordercolor="#666666"
     borderopacity="1.0"
     inkscape:pageopacity="0.0"
     inkscape:pageshadow="2"
     inkscape:zoom="3.6576934"
     inkscape:cx="50.812194"
     inkscape:cy="78.782616"
     inkscape:document-units="mm"
     inkscape:current-layer="layer1"
     inkscape:document-rotation="0"
     showgrid="false"
     showguides="true"
     inkscape:guide-bbox="true"
     inkscape:window-width="1252"
     inkscape:window-height="803"
     inkscape:window-x="163"
     inkscape:window-y="23"
     inkscape:window-maximized="0">
    <sodipodi:guide
       position="31.725554,4.9452205"
       orientation="0,-1"
       id="guide16" />
    <sodipodi:guide
       position="32.900574,34.51657"
       orientation="0,-1"
       id="guide18" />
    <sodipodi:guide
       position="5.2875923,18.84963"
       orientation="1,0"
       id="guide20" />
    <sodipodi:guide
       position="35.250615,30.012325"
       orientation="1,0"
       id="guide22" />
    <sodipodi:guide
       id="guide891"
       orientation="0,-1"
       position="14.91881,-0.34860156" />
    <sodipodi:guide
       id="guide893"
       orientation="0,-1"
       position="13.562555,40.678127" />
    <sodipodi:guide
       id="guide895"
       orientation="1,0"
       position="-0.5085958,34.51657" />
    <sodipodi:guide
       id="guide899"
       orientation="1,0"
       position="40.3486,27.454636" />
  </sodipodi:namedview>
  <metadata
     id="metadata5">
    <rdf:RDF>
      <cc:Work
         rdf:about="">
        <dc:format>image/svg+xml</dc:format>
        <dc:type
           rdf:resource="http://purl.org/dc/dcmitype/StillImage" />
        <dc:title />
      </cc:Work>
    </rdf:RDF>
  </metadata>
  <g
     inkscape:label="Layer 1"
     inkscape:groupmode="layer"
     id="layer1"
     transform="translate(-53.672619,-41.577381)">
    <rect
       y="40.957661"
       x="53.333557"
       height="40.968327"
       width="40.857197"
       id="rect856"
       style="fill:#17569b;fill-opacity:1;stroke-width:0.264942" />
    <g
       style="font-style:normal;font-weight:normal;font-size:9.01188px;line-height:1.25;font-family:sans-serif;fill:#ffffff;fill-opacity:1;stroke:none;stroke-width:0.225298"
       id="text14-9"
       transform="matrix(0.96872726,0,0,1.0322823,-0.52916667,0)"
       aria-label="P">
      <path
         id="path308"
         style="font-style:normal;font-variant:normal;font-weight:normal;font-stretch:normal;font-family:'Game Logos';-inkscape-font-specification:'Game Logos';fill:#ffffff;stroke-width:0.225298"
         d="m 93.4989,53.355703 h 0.140811 q 0.712854,0 1.05608,0.844864 0.0352,0.211216 0.0352,0.316824 0,0.752457 -0.827262,1.091282 -0.193615,0.0528 -0.334425,0.0528 -0.814062,0 -1.126485,-0.897668 -0.0176,-0.118809 -0.0176,-0.193614 V 54.42938 q 0,-0.699653 0.827263,-1.038478 0.13201,-0.0352 0.246418,-0.0352 z m -0.915269,1.108884 q 0,0.690852 0.686452,0.968073 0.140811,0.0528 0.299223,0.0528 0.686451,0 0.950471,-0.739256 0.0352,-0.154012 0.0352,-0.246419 0,-0.677651 -0.739256,-0.950471 -0.118809,-0.0176 -0.193614,-0.0176 h -0.105608 q -0.66005,0 -0.915269,0.79206 0,0.12321 -0.0176,0.140811 z m 0.563243,-0.598445 h 0.616046 q 0.334425,0.0572 0.334425,0.316824 v 0.105608 q -0.0528,0.299222 -0.281621,0.299222 v 0.0176 q 0.242018,0.365228 0.334425,0.52804 l -0.0352,0.0176 h -0.140811 q -0.022,0 -0.387229,-0.545642 h -0.299223 v 0.510439 q 0,0.0352 -0.0352,0.0352 h -0.105608 q -0.0352,0 -0.0352,-0.0352 v -1.214492 q 0.0044,-0.0352 0.0352,-0.0352 z m 0.14081,0.158412 v 0.422432 h 0.404831 q 0.228817,0 0.228817,-0.193615 v -0.0352 q -0.0308,-0.193614 -0.193614,-0.193614 z m -4.136312,0.228817 q 1.262896,0 2.006552,1.108884 0.158412,0.224417 1.249694,3.59067 1.883342,5.513616 2.024153,6.019655 h -5.896445 q -0.0352,0 -0.0352,-0.0352 v -1.408106 q 0.0044,-0.0352 0.0352,-0.0352 h 3.854691 Q 90.137047,56.787962 89.820223,55.925497 89.521,55.573471 89.186575,55.573471 h -0.105608 q -0.655649,0 -0.897668,1.108883 -0.211216,0.585244 -2.816212,8.272624 l -0.0352,0.0176 H 79.31223 q -1.72053,0 -2.675402,-1.689728 -0.26402,-0.651249 -0.26402,-1.19689 v -4.752359 q 0,-1.421307 1.249694,-2.376179 0.774459,-0.52804 1.654525,-0.52804 h 4.840365 q 0.0352,0.0044 0.0352,0.0352 v 1.408106 q 0,0.0352 -0.0352,0.0352 H 79.31223 q -0.849264,0 -1.302498,0.827262 -0.140811,0.26842 -0.140811,0.580844 v 4.76996 q 0,0.893267 0.985674,1.337701 0.242019,0.07041 0.440034,0.07041 h 3.379455 v -3.960299 h -2.6402 q -0.0352,0 -0.0352,-0.0352 V 58.09046 q 0.0044,-0.0352 0.0352,-0.0352 h 4.083508 q 0.0352,0.0044 0.0352,0.0352 v 5.808439 h 0.0176 q 2.481788,-7.361756 2.869017,-8.431036 0.748056,-1.214492 2.112159,-1.214492 z m -26.613208,0.176013 h 4.646751 q 0.0352,0.0044 0.0352,0.0352 v 1.408106 q 0,0.0352 -0.0352,0.0352 H 62.60857 q -1.280497,0 -1.865741,1.19689 -0.158412,0.347626 -0.158412,0.721654 v 0.12321 q 0,1.06488 1.108884,1.72493 0.431232,0.193615 1.020877,0.193615 h 0.827262 q 1.18809,0 1.636924,0.809661 0.228817,0.365227 0.228817,0.774458 v 0.140811 q 0,0.919669 -1.003276,1.443309 -0.312423,0.123209 -0.704053,0.123209 h -4.576345 q -0.0352,0 -0.0352,-0.0352 v -1.408106 q 0.0044,-0.0352 0.0352,-0.0352 h 4.64675 q 0.136411,0 0.158412,-0.176013 0,-0.13641 -0.211216,-0.158412 h -1.249694 q -1.258495,0 -2.323375,-0.968073 -1.05608,-1.073681 -1.05608,-2.499389 0,-1.760132 1.601721,-2.92182 0.893267,-0.52804 1.848139,-0.52804 z m 8.272625,0 h 4.998777 q 0.0352,0.0044 0.0352,0.0352 v 1.408106 q 0,0.0352 -0.0352,0.0352 H 70.82839 q -0.968073,0 -1.390505,1.038478 -0.0528,0.189214 -0.0528,0.316824 v 4.822764 q 0,0.805261 0.827262,1.267295 0.272821,0.140811 0.580844,0.140811 h 4.981176 q 0.0352,0.0044 0.0352,0.0352 v 1.408106 q 0,0.0352 -0.0352,0.0352 h -4.893169 q -1.782135,0 -2.693003,-1.672127 -0.281622,-0.616046 -0.281622,-1.267295 v -4.629149 q 0,-1.861341 1.812937,-2.763409 0.580844,-0.211216 1.091283,-0.211216 z m 18.322982,1.46091 q 0.431233,0 0.563242,0.668851 0.246419,0.690852 2.235369,6.600498 l -0.0352,0.0176 h -3.361853 q -0.0352,0 -0.0352,-0.0352 V 61.90995 h -0.0176 q -0.721655,2.217767 -1.038479,3.062631 h -1.689727 l -0.0352,-0.0176 q 2.816213,-8.338629 3.027429,-8.871069 0.189214,-0.193615 0.387229,-0.193615 z m -26.472397,0.352027 h 4.523541 q 0.0352,0.0044 0.0352,0.0352 v 1.408106 q 0,0.0352 -0.0352,0.0352 h -4.629149 q -0.176014,0.0352 -0.176014,0.176013 0.0352,0.158412 0.158412,0.158412 h 1.232093 q 1.843739,0 2.974625,1.672126 0.492837,0.884467 0.492837,1.812937 0,1.707329 -1.531316,2.851415 -0.866865,0.510438 -1.232093,0.510438 0,0.022 -0.40483,0.07041 -2.38938,0.0176 -3.854691,0.0176 h -1.091282 q -0.0352,0 -0.0352,-0.0352 v -1.425707 q 0.0044,-0.0352 0.0352,-0.0352 h 4.611548 q 1.240893,0 1.848139,-1.179289 0.158412,-0.391629 0.158412,-0.704053 v -0.193615 q 0,-0.924069 -0.93287,-1.584119 -0.453234,-0.299223 -1.232093,-0.299223 h -0.844864 q -1.3289,0 -1.742531,-1.144086 -0.07041,-0.242018 -0.07041,-0.440033 v -0.12321 q 0,-0.93727 0.985675,-1.443308 0.281621,-0.140811 0.756857,-0.140811 z m 8.202219,0 h 4.945973 q 0.0352,0.0044 0.0352,0.0352 v 1.408106 q 0,0.0352 -0.0352,0.0352 h -4.294724 q -0.277221,0 -0.316824,0.334425 h 3.537867 q 0.0352,0.0044 0.0352,0.0352 v 1.408107 q 0,0.0352 -0.0352,0.0352 h -4.981176 q -0.0352,0 -0.0352,-0.0352 v -1.98895 q 0,-0.893268 0.721655,-1.196891 0.206815,-0.07041 0.422432,-0.07041 z m 8.48384,0 h 4.769959 q 0.0352,0.0044 0.0352,0.0352 v 1.408106 q 0,0.0352 -0.0352,0.0352 h -4.171514 q -0.242018,0 -0.281621,0.369627 v 3.150638 q 0,0.440033 0.352026,0.440033 h 0.844864 V 61.3467 h -0.827263 q -0.0352,0 -0.0352,-0.0352 v -1.408106 q 0.0044,-0.0352 0.0352,-0.0352 h 2.270572 q 0.0352,0.0044 0.0352,0.0352 v 3.221043 q 0,0.0352 -0.0352,0.0352 h -3.04503 q -0.642448,0 -0.985674,-0.721655 -0.07041,-0.176013 -0.07041,-0.352026 v -4.805163 q 0,-0.585244 0.704053,-0.968073 0.250819,-0.07041 0.440034,-0.07041 z m -9.592724,3.625874 h 4.981176 q 0.0352,0.0044 0.0352,0.0352 v 1.408106 q 0,0.0352 -0.0352,0.0352 h -3.537867 v 0.0528 q 0,0.224417 0.334425,0.281621 h 4.24192 q 0.0352,0.0044 0.0352,0.0352 v 1.408106 q 0,0.0352 -0.0352,0.0352 h -4.805162 q -0.932871,0 -1.214492,-0.827263 -0.0352,-0.259619 -0.0352,-0.387229 v -2.041754 q 0.0044,-0.0352 0.0352,-0.0352 z m 19.361461,0.176013 q 0,0.0352 -0.492838,1.478511 h 1.020877 Q 89.38019,60.774663 89.151372,60.044208 Z" />
    </g>
  </g>
</svg>
