<?xml version="1.0" encoding="UTF-8" standalone="no"?>
<svg
   xmlns:dc="http://purl.org/dc/elements/1.1/"
   xmlns:cc="http://creativecommons.org/ns#"
   xmlns:rdf="http://www.w3.org/1999/02/22-rdf-syntax-ns#"
   xmlns:svg="http://www.w3.org/2000/svg"
   xmlns="http://www.w3.org/2000/svg"
   xmlns:sodipodi="http://sodipodi.sourceforge.net/DTD/sodipodi-0.dtd"
   xmlns:inkscape="http://www.inkscape.org/namespaces/inkscape"
   width="40mm"
   height="40mm"
   viewBox="0 0 40 40"
   version="1.1"
   id="svg8"
   inkscape:version="1.0 (4035a4f, 2020-05-01)"
   sodipodi:docname="gaming-reddit-2.svg">
  <defs
     id="defs2" />
  <sodipodi:namedview
     id="base"
     pagecolor="#ffffff"
     bordercolor="#666666"
     borderopacity="1.0"
     inkscape:pageopacity="0.0"
     inkscape:pageshadow="2"
     inkscape:zoom="1.5606695"
     inkscape:cx="60.770049"
     inkscape:cy="185.48576"
     inkscape:document-units="mm"
     inkscape:current-layer="text32"
     inkscape:document-rotation="0"
     showgrid="false"
     showguides="true"
     inkscape:guide-bbox="true"
     inkscape:window-width="1252"
     inkscape:window-height="803"
     inkscape:window-x="159"
     inkscape:window-y="23"
     inkscape:window-maximized="0">
    <sodipodi:guide
       position="31.725554,4.9452205"
       orientation="0,-1"
       id="guide16" />
    <sodipodi:guide
       position="32.900574,34.51657"
       orientation="0,-1"
       id="guide18" />
    <sodipodi:guide
       position="5.2875923,18.84963"
       orientation="1,0"
       id="guide20" />
    <sodipodi:guide
       position="35.250615,30.012325"
       orientation="1,0"
       id="guide22" />
    <sodipodi:guide
       id="guide891"
       orientation="0,-1"
       position="14.91881,-0.34860156" />
    <sodipodi:guide
       id="guide893"
       orientation="0,-1"
       position="13.562555,40.678127" />
    <sodipodi:guide
       id="guide895"
       orientation="1,0"
       position="-0.5085958,34.51657" />
    <sodipodi:guide
       id="guide899"
       orientation="1,0"
       position="40.3486,27.454636" />
    <sodipodi:guide
       position="14.749279,24.233529"
       orientation="0,-1"
       id="guide1116" />
  </sodipodi:namedview>
  <metadata
     id="metadata5">
    <rdf:RDF>
      <cc:Work
         rdf:about="">
        <dc:format>image/svg+xml</dc:format>
        <dc:type
           rdf:resource="http://purl.org/dc/dcmitype/StillImage" />
        <dc:title></dc:title>
      </cc:Work>
    </rdf:RDF>
  </metadata>
  <g
     inkscape:label="Layer 1"
     inkscape:groupmode="layer"
     id="layer1"
     transform="translate(-53.672619,-41.577381)">
    <rect
       y="40.957661"
       x="53.333557"
       height="40.968327"
       width="40.857197"
       id="rect856"
       style="fill:#c4716d;fill-opacity:1;stroke-width:0.264942" />
    <g
       style="fill:#ffffff"
       transform="translate(-1.2235032,-0.85697528)"
       id="g862">
      <g
         aria-label="d"
         transform="scale(1.0203436,0.98006201)"
         id="text27"
         style="font-style:normal;font-weight:normal;font-size:27.5869px;line-height:1.25;font-family:sans-serif;fill:#ffffff;fill-opacity:1;stroke:none;stroke-width:0.689675">
        <path
           d="m 76.867069,76.088662 q 0.282874,-0.660038 0.983322,-1.805002 0.700449,-1.171905 0.969852,-1.805002 h -4.09493 q 1.589479,2.909555 2.141756,3.610004 z m 4.108401,-5.765231 q 2.41116,-1.198845 3.515713,-2.047465 -0.404105,-0.215523 -1.724181,-1.010263 -1.064143,-0.633098 -1.791532,-0.956382 0.01347,0.713919 -0.01347,2.155227 -0.02694,1.225785 0.01347,1.858883 z m -8.311093,-4.01411 q -1.427838,0.592688 -3.610004,2.060936 0.350224,0.175112 1.831942,1.077613 1.131494,0.686979 1.778062,0.875561 -0.01347,-0.511866 0,-1.885823 0.01347,-1.508659 0,-2.128287 z m 3.919819,0 q -0.969852,0.107762 -1.468249,0.7678 -0.444515,0.592687 -0.363694,1.400897 0.06735,0.79474 0.592687,1.347017 0.565747,0.592687 1.427838,0.592687 0.983322,0 1.535599,-0.673508 0.484926,-0.619628 0.444515,-1.481719 -0.04041,-0.87556 -0.592687,-1.427837 -0.606157,-0.619628 -1.576009,-0.525337 z m 2.236047,-2.141756 q -0.296344,-0.619628 -2.047465,-3.623475 -1.953174,3.434893 -2.047465,3.623475 z m 0.592687,6.748553 q -0.296343,0.660038 -0.04041,2.949967 0.228993,2.020525 -0.444516,2.613212 -0.431045,0.377165 -2.101345,0.404105 -1.710712,0.02694 -2.209108,-0.404105 -0.592687,-0.525337 -0.444515,-2.46504 0.188582,-2.478511 0.05388,-3.098139 -0.02694,-0.01347 -3.205899,0.04041 -1.939704,0.02694 -2.559332,-0.633098 0.02694,-0.309814 -0.175112,-2.182167 -0.134702,-1.333546 0.282874,-1.926234 0.525336,-0.767799 2.518921,-0.565747 2.518921,0.255933 3.138548,0.08082 0,0.01347 -0.05388,-3.475303 -0.04041,-2.114816 1.037203,-2.384219 0.86209,-0.228993 1.966644,-0.175112 1.266195,0.04041 1.751121,0.457985 0.592688,0.525337 0.444516,2.465041 -0.188582,2.491981 -0.05388,3.111608 0.511867,0.121232 2.869146,-0.05388 1.980114,-0.134702 2.599742,0.350224 0.538807,0.404105 0.579217,2.155226 0.05388,1.697241 -0.377165,2.236048 -0.592687,0.740859 -2.518921,0.565747 -2.45157,-0.228993 -3.057728,-0.06735 z M 75.600873,58.792969 q -1.791532,0.202052 -3.030787,0.781269 -2.4381,1.144964 -3.879408,3.313661 -1.60295,2.38422 -1.58948,5.482358 0.01347,4.014109 2.828735,6.842844 2.236048,2.222578 5.212955,2.694034 2.761384,0.444515 5.428477,-0.727389 2.640152,-1.158435 4.229632,-3.502244 1.710711,-2.49198 1.65683,-5.603589 -0.08082,-4.337393 -3.178959,-7.044897 -3.138549,-2.747914 -7.677995,-2.236047 z"
           style="font-style:normal;font-variant:normal;font-weight:normal;font-stretch:normal;font-family:'video games';-inkscape-font-specification:'video games';fill:#ffffff;fill-opacity:1;stroke-width:0.689675"
           id="path1126" />
      </g>
      <g
         style="font-style:normal;font-weight:normal;font-size:12.8261px;line-height:1.25;font-family:sans-serif;fill:#ffffff;fill-opacity:1;stroke:none;stroke-width:0.320654"
         id="text32"
         transform="scale(0.99028354,1.0098118)"
         aria-label="x">
        <path
           id="path52"
           style="font-style:normal;font-variant:normal;font-weight:normal;font-stretch:normal;font-family:'Font Type Icons 2018';-inkscape-font-specification:'Font Type Icons 2018, ';fill:#ffffff;stroke-width:0.320654"
           d="m 64.92249,54.891659 q -0.557384,0 -0.782843,-0.551122 -0.106466,-0.325663 -0.106466,-0.538596 0,-0.70769 0.933149,-0.757792 1.020827,0 1.020827,1.033353 0,0.588698 -0.657588,0.764055 -0.231722,0.0501 -0.407079,0.0501 z m 2.191961,2.354791 q -0.745267,0 -1.496796,-0.288086 -0.38829,-0.156568 -0.676376,-0.419604 -0.131518,-0.125255 -0.131518,-0.231721 0,-0.118992 0.256773,-0.187883 0.908097,0.764055 1.979027,0.764055 0.801631,0 1.678415,-0.469706 0.469706,-0.225458 0.6388,-0.225458 0.05636,0 0.118992,0.02505 0,0.407078 -0.782843,0.720215 -0.77658,0.313137 -1.584474,0.313137 z m 2.116807,-2.317215 q -0.338188,0 -0.638799,-0.263035 -0.300612,-0.269298 -0.300612,-0.651326 0,-0.901835 0.901835,-0.970725 0.789106,0 0.945674,0.77658 0.02505,0.156569 0.02505,0.313137 0,0.551122 -0.601223,0.732742 -0.169094,0.06263 -0.331926,0.06263 z m -2.248325,3.5134 q 1.114769,0 2.279639,-0.3194 3.231576,-0.964463 3.231576,-3.688757 v -0.181619 q 0.782843,-0.331926 0.782843,-1.064667 0,-0.275561 -0.100204,-0.563647 -0.300611,-0.983251 -1.16487,-0.983251 -0.200408,0 -0.45718,0.05636 -0.200408,0.03758 -0.582436,0.338188 -1.133556,-0.926886 -3.544713,-1.16487 0.576173,-2.592776 0.626275,-2.811973 l 1.94145,0.413342 q 0.144043,0.933148 0.926886,0.933148 0.995777,0 0.995777,-0.851733 v -0.288086 q -0.169094,-0.839208 -0.901835,-0.839208 l -0.237985,0.03758 q -0.181619,0.01252 -0.413341,0.237984 -0.225459,0.225459 -0.331925,0.25051 -0.08142,0 -1.164871,-0.225459 -1.020827,-0.219196 -1.139819,-0.219196 -0.144043,0.07515 -0.300612,0.770318 l -0.52607,2.617827 q -1.465483,0.01252 -2.868337,0.70769 l -0.757792,0.394553 q 0,-0.02505 -0.219196,-0.18162 -0.356977,-0.212933 -0.726479,-0.212933 -0.494757,0 -0.933149,0.469706 -0.438392,0.463443 -0.438392,0.958199 0,0.338189 0.219196,0.670114 0.0063,0 0.594961,0.588698 l -0.01252,0.338188 q 0,1.690941 1.816195,2.843286 1.571949,0.970726 3.406933,0.970726 z" />
      </g>
    </g>
  </g>
</svg>
