<?xml version="1.0" encoding="UTF-8" standalone="no"?>
<svg
   xmlns:dc="http://purl.org/dc/elements/1.1/"
   xmlns:cc="http://creativecommons.org/ns#"
   xmlns:rdf="http://www.w3.org/1999/02/22-rdf-syntax-ns#"
   xmlns:svg="http://www.w3.org/2000/svg"
   xmlns="http://www.w3.org/2000/svg"
   xmlns:sodipodi="http://sodipodi.sourceforge.net/DTD/sodipodi-0.dtd"
   xmlns:inkscape="http://www.inkscape.org/namespaces/inkscape"
   width="40mm"
   height="40mm"
   viewBox="0 0 40 40"
   version="1.1"
   id="svg8"
   inkscape:version="1.0 (4035a4f, 2020-05-01)"
   sodipodi:docname="tvfilm-prime.svg">
  <defs
     id="defs2" />
  <sodipodi:namedview
     id="base"
     pagecolor="#ffffff"
     bordercolor="#666666"
     borderopacity="1.0"
     inkscape:pageopacity="0.0"
     inkscape:pageshadow="2"
     inkscape:zoom="1.569194"
     inkscape:cx="72.375471"
     inkscape:cy="157.41493"
     inkscape:document-units="mm"
     inkscape:current-layer="layer1"
     inkscape:document-rotation="0"
     showgrid="false"
     showguides="true"
     inkscape:guide-bbox="true"
     inkscape:window-width="1252"
     inkscape:window-height="803"
     inkscape:window-x="163"
     inkscape:window-y="23"
     inkscape:window-maximized="0">
    <sodipodi:guide
       position="31.725554,4.9452205"
       orientation="0,-1"
       id="guide16" />
    <sodipodi:guide
       position="32.900574,34.51657"
       orientation="0,-1"
       id="guide18" />
    <sodipodi:guide
       position="5.2875923,18.84963"
       orientation="1,0"
       id="guide20" />
    <sodipodi:guide
       position="35.250615,30.012325"
       orientation="1,0"
       id="guide22" />
    <sodipodi:guide
       id="guide891"
       orientation="0,-1"
       position="14.91881,-0.34860156" />
    <sodipodi:guide
       id="guide893"
       orientation="0,-1"
       position="13.562555,40.678127" />
    <sodipodi:guide
       id="guide895"
       orientation="1,0"
       position="-0.5085958,34.51657" />
    <sodipodi:guide
       id="guide899"
       orientation="1,0"
       position="40.3486,27.454636" />
  </sodipodi:namedview>
  <metadata
     id="metadata5">
    <rdf:RDF>
      <cc:Work
         rdf:about="">
        <dc:format>image/svg+xml</dc:format>
        <dc:type
           rdf:resource="http://purl.org/dc/dcmitype/StillImage" />
        <dc:title></dc:title>
      </cc:Work>
    </rdf:RDF>
  </metadata>
  <g
     inkscape:label="Layer 1"
     inkscape:groupmode="layer"
     id="layer1"
     transform="translate(-53.672619,-41.577381)">
    <rect
       y="40.957661"
       x="53.333557"
       height="40.968327"
       width="40.857197"
       id="rect856"
       style="fill:#ffffff;fill-opacity:1;stroke-width:0.264942" />
    <g
       transform="matrix(1.4823331,0,0,1.4323697,-42.23802,-20.74251)"
       id="g3234">
      <path
         id="path3173"
         d="m 68.007213,59.889188 c -0.05689,0.0026 -0.112713,-0.01614 -0.156104,-0.05292 -0.03704,-0.04419 -0.05424,-0.1016 -0.04763,-0.15875 v -5.3975 c -0.0066,-0.05715 0.01058,-0.114565 0.04763,-0.15875 0.04392,-0.03334 0.09842,-0.04921 0.153458,-0.04498 h 0.587375 c 0.111125,-0.01111 0.211137,0.06694 0.227542,0.177271 l 0.05821,0.211666 c 0.169069,-0.163248 0.368829,-0.291835 0.587375,-0.378354 0.223573,-0.09049 0.462492,-0.137319 0.703792,-0.137583 0.481012,-0.01588 0.940858,0.198173 1.23825,0.576792 0.327554,0.451379 0.490273,1.001447 0.460375,1.558395 0.009,0.404284 -0.06853,0.805657 -0.227542,1.177396 -0.131233,0.309563 -0.344488,0.577586 -0.616479,0.775229 -0.262996,0.179388 -0.575998,0.271992 -0.894292,0.264584 -0.216164,0.0011 -0.431006,-0.03466 -0.635,-0.105834 -0.187589,-0.06297 -0.360892,-0.161925 -0.510646,-0.291041 v 1.778 c 0.0058,0.05662 -0.01005,0.113506 -0.04498,0.15875 -0.04524,0.03493 -0.102129,0.0508 -0.15875,0.04498 z m 1.780646,-2.4765 c 0.261408,0.01878 0.51435,-0.09816 0.669395,-0.309563 0.164836,-0.295804 0.239448,-0.633412 0.214313,-0.971021 0.0254,-0.340783 -0.04815,-0.681566 -0.211667,-0.981604 -0.155575,-0.213519 -0.411162,-0.330729 -0.674687,-0.309562 -0.279665,2.64e-4 -0.553773,0.07594 -0.79375,0.219604 v 2.129896 c 0.238125,0.148166 0.513291,0.225954 0.79375,0.224896 z"
         class="st0"
         style="fill:#00a8e1;stroke-width:0.264583" />
      <path
         id="path3175"
         d="m 72.8729,58.217021 c -0.09472,0.01773 -0.186002,-0.04472 -0.203729,-0.1397 -0.004,-0.02117 -0.004,-0.04286 0,-0.06403 V 54.28002 c -0.0066,-0.05715 0.01058,-0.114565 0.04762,-0.15875 0.04392,-0.03334 0.09843,-0.04921 0.153458,-0.04498 h 0.58473 c 0.111125,-0.01111 0.211137,0.06694 0.227541,0.177271 l 0.105834,0.433916 c 0.173831,-0.203464 0.381529,-0.375443 0.613833,-0.508 0.189442,-0.09922 0.40005,-0.150812 0.613833,-0.150812 h 0.113771 c 0.05741,-0.005 0.114829,0.01085 0.161396,0.04498 0.03704,0.04419 0.05424,0.1016 0.04763,0.15875 v 0.682625 c 0.0045,0.05503 -0.01138,0.109538 -0.04498,0.153458 -0.04419,0.03704 -0.1016,0.05424 -0.15875,0.04762 h -0.145521 c -0.06006,0 -0.135731,0 -0.227542,0 -0.152929,0.0032 -0.305329,0.0209 -0.455083,0.05292 -0.156104,0.02884 -0.308504,0.07408 -0.455083,0.134938 v 2.711979 c 0.0042,0.05503 -0.01164,0.109537 -0.04498,0.153458 -0.04418,0.03704 -0.1016,0.05424 -0.15875,0.04763 z"
         class="st0"
         style="fill:#00a8e1;stroke-width:0.264583" />
      <path
         id="path3177"
         d="m 76.510921,53.430709 c -0.180446,0.009 -0.357452,-0.05159 -0.494771,-0.169334 -0.127529,-0.119327 -0.196056,-0.28866 -0.187854,-0.463021 -0.009,-0.175418 0.05953,-0.34581 0.187854,-0.465666 0.289984,-0.23204 0.702204,-0.23204 0.992188,0 0.127529,0.119327 0.196056,0.28866 0.187854,0.463021 0.0082,0.17436 -0.06032,0.343693 -0.187854,0.46302 -0.137584,0.119327 -0.315648,0.180975 -0.497417,0.17198 z m -0.388937,4.788958 c -0.09472,0.01773 -0.186002,-0.04472 -0.20373,-0.1397 -0.004,-0.02117 -0.004,-0.04286 0,-0.06403 V 54.28002 c -0.0066,-0.05715 0.01058,-0.114565 0.04763,-0.15875 0.04392,-0.03334 0.09842,-0.04921 0.153459,-0.04498 h 0.780521 c 0.05662,-0.0058 0.113506,0.01005 0.15875,0.04498 0.03493,0.04524 0.0508,0.102129 0.04498,0.15875 v 3.735917 c 0.0045,0.05503 -0.01138,0.109537 -0.04498,0.153458 -0.04419,0.03704 -0.1016,0.05424 -0.15875,0.04763 z"
         class="st0"
         style="fill:#00a8e1;stroke-width:0.264583" />
      <path
         id="path3179"
         d="m 78.312734,58.217021 c -0.09472,0.01773 -0.186002,-0.04472 -0.20373,-0.1397 -0.004,-0.02117 -0.004,-0.04286 0,-0.06403 V 54.28002 c -0.0066,-0.05715 0.01058,-0.114565 0.04763,-0.15875 0.04392,-0.03334 0.09842,-0.04921 0.153459,-0.04498 h 0.584729 c 0.111125,-0.01111 0.211137,0.06694 0.227542,0.177271 l 0.06615,0.219604 c 0.240771,-0.165894 0.501121,-0.300831 0.77523,-0.402167 0.226218,-0.07885 0.464079,-0.119856 0.703791,-0.121708 0.416984,-0.03572 0.817563,0.169862 1.031875,0.529167 0.241565,-0.166159 0.504032,-0.299509 0.780521,-0.396875 0.243946,-0.08123 0.499533,-0.122238 0.756708,-0.121709 0.324909,-0.01958 0.643467,0.09525 0.881063,0.3175 0.219075,0.240242 0.331787,0.559065 0.312208,0.883709 v 2.854854 c 0.0042,0.05503 -0.01164,0.109537 -0.04498,0.153458 -0.04418,0.03704 -0.1016,0.05424 -0.15875,0.04763 h -0.769937 c -0.09472,0.01773 -0.186002,-0.04472 -0.20373,-0.1397 -0.004,-0.02117 -0.004,-0.04286 0,-0.06403 v -2.6035 c 0,-0.368565 -0.164835,-0.552979 -0.49477,-0.552979 -0.307446,0.0034 -0.610394,0.07593 -0.886355,0.211666 v 2.947459 c 0.0045,0.05503 -0.01138,0.109537 -0.04498,0.153458 -0.04418,0.03704 -0.1016,0.05424 -0.15875,0.04763 h -0.777875 c -0.09472,0.01773 -0.186002,-0.04472 -0.203729,-0.1397 -0.004,-0.02117 -0.004,-0.04286 0,-0.06403 v -2.6035 c 0,-0.368565 -0.164835,-0.552979 -0.494771,-0.552979 -0.31115,0.0019 -0.617537,0.07726 -0.894291,0.219604 v 2.936875 c 0.0042,0.05503 -0.01164,0.109537 -0.04498,0.153458 -0.04418,0.03704 -0.1016,0.05424 -0.15875,0.04762 z"
         class="st0"
         style="fill:#00a8e1;stroke-width:0.264583" />
      <path
         id="path3181"
         d="m 87.260942,58.338729 c -0.570177,0.03731 -1.1303,-0.162718 -1.547813,-0.552979 -0.381793,-0.437091 -0.572558,-1.008856 -0.529166,-1.5875 -0.0381,-0.59981 0.155046,-1.191683 0.53975,-1.653646 0.400844,-0.413808 0.962025,-0.633148 1.537229,-0.600604 0.42545,-0.0254 0.845608,0.104511 1.182687,0.365125 0.285221,0.243417 0.442384,0.604573 0.42598,0.978959 0.01931,0.366447 -0.155575,0.716227 -0.460375,0.92075 -0.410369,0.23442 -0.880534,0.3429 -1.352021,0.312208 -0.267229,0.0032 -0.533929,-0.02699 -0.79375,-0.08996 0.0016,0.292629 0.119591,0.572558 0.328083,0.777875 0.246856,0.175154 0.547423,0.258497 0.849313,0.235479 0.147637,0 0.295275,-0.0098 0.441854,-0.0291 0.201612,-0.03122 0.401108,-0.07382 0.597958,-0.127 h 0.04763 0.03969 c 0.09181,0 0.137583,0.06271 0.137583,0.187854 v 0.373062 c 0.005,0.06324 -0.0077,0.126471 -0.03704,0.182563 -0.03757,0.04418 -0.08731,0.0762 -0.142875,0.0926 -0.404812,0.14896 -0.833437,0.221721 -1.264708,0.214312 z m -0.264583,-2.547937 c 0.208227,0.01508 0.416454,-0.02884 0.600604,-0.127 0.126471,-0.08652 0.197908,-0.233363 0.187854,-0.386292 0,-0.340519 -0.202935,-0.510646 -0.608542,-0.510646 -0.520435,0 -0.821002,0.319352 -0.902229,0.957792 0.236273,0.04524 0.476515,0.06747 0.717021,0.06615 z"
         class="st0"
         style="fill:#00a8e1;stroke-width:0.264583" />
      <path
         id="path3183"
         d="m 86.834963,62.775792 c -2.31775,1.709208 -5.677959,2.616729 -8.569854,2.616729 -3.864505,0.02064 -7.597775,-1.400969 -10.469563,-3.987271 -0.216958,-0.195791 -0.02381,-0.463021 0.238125,-0.312208 3.190346,1.821656 6.801115,2.778389 10.474854,2.775479 2.741348,-0.01455 5.453063,-0.569383 7.979834,-1.632479 0.402166,-0.166688 0.73025,0.246062 0.346604,0.53975 z"
         class="st0"
         style="fill:#00a8e1;stroke-width:0.264583" />
      <path
         id="path3185"
         d="M 87.811275,61.688354 C 87.514942,61.31 85.853359,61.508438 85.104588,61.598394 c -0.227542,0.02646 -0.264584,-0.169333 -0.05821,-0.312208 1.322917,-0.931334 3.500438,-0.661459 3.751792,-0.34925 0.251354,0.312208 -0.06615,2.489729 -1.322917,3.529541 -0.1905,0.15875 -0.373062,0.07408 -0.288395,-0.137583 0.283104,-0.711729 0.910166,-2.272771 0.624416,-2.640542 z"
         class="st0"
         style="fill:#00a8e1;stroke-width:0.264583" />
    </g>
  </g>
</svg>
