<?xml version="1.0" encoding="UTF-8" standalone="no"?>
<svg
   xmlns:dc="http://purl.org/dc/elements/1.1/"
   xmlns:cc="http://creativecommons.org/ns#"
   xmlns:rdf="http://www.w3.org/1999/02/22-rdf-syntax-ns#"
   xmlns:svg="http://www.w3.org/2000/svg"
   xmlns="http://www.w3.org/2000/svg"
   xmlns:sodipodi="http://sodipodi.sourceforge.net/DTD/sodipodi-0.dtd"
   xmlns:inkscape="http://www.inkscape.org/namespaces/inkscape"
   width="40mm"
   height="40mm"
   viewBox="0 0 40 40"
   version="1.1"
   id="svg8"
   inkscape:version="1.0 (4035a4f, 2020-05-01)"
   sodipodi:docname="instagram.svg">
  <defs
     id="defs2" />
  <sodipodi:namedview
     id="base"
     pagecolor="#ffffff"
     bordercolor="#666666"
     borderopacity="1.0"
     inkscape:pageopacity="0.0"
     inkscape:pageshadow="2"
     inkscape:zoom="1.2680421"
     inkscape:cx="260.3617"
     inkscape:cy="100.29755"
     inkscape:document-units="mm"
     inkscape:current-layer="layer1"
     inkscape:document-rotation="0"
     showgrid="false"
     showguides="true"
     inkscape:guide-bbox="true"
     inkscape:window-width="1440"
     inkscape:window-height="799"
     inkscape:window-x="0"
     inkscape:window-y="23"
     inkscape:window-maximized="1">
    <sodipodi:guide
       position="31.725554,4.9452205"
       orientation="0,-1"
       id="guide16" />
    <sodipodi:guide
       position="32.900574,34.51657"
       orientation="0,-1"
       id="guide18" />
    <sodipodi:guide
       position="5.2875923,18.84963"
       orientation="1,0"
       id="guide20" />
    <sodipodi:guide
       position="35.250615,30.012325"
       orientation="1,0"
       id="guide22" />
    <sodipodi:guide
       id="guide891"
       orientation="0,-1"
       position="14.91881,-0.34860156" />
    <sodipodi:guide
       id="guide893"
       orientation="0,-1"
       position="13.562555,40.678127" />
    <sodipodi:guide
       id="guide895"
       orientation="1,0"
       position="-0.5085958,34.51657" />
    <sodipodi:guide
       id="guide899"
       orientation="1,0"
       position="40.3486,27.454636" />
    <sodipodi:guide
       position="14.749279,24.233529"
       orientation="0,-1"
       id="guide1116" />
  </sodipodi:namedview>
  <metadata
     id="metadata5">
    <rdf:RDF>
      <cc:Work
         rdf:about="">
        <dc:format>image/svg+xml</dc:format>
        <dc:type
           rdf:resource="http://purl.org/dc/dcmitype/StillImage" />
        <dc:title></dc:title>
      </cc:Work>
    </rdf:RDF>
  </metadata>
  <g
     inkscape:label="Layer 1"
     inkscape:groupmode="layer"
     id="layer1"
     transform="translate(-53.672619,-41.577381)">
    <rect
       y="40.899254"
       x="53.164024"
       height="40.968327"
       width="40.857197"
       id="rect856"
       style="fill:#5872db;fill-opacity:1;stroke-width:0.264942" />
    <g
       style="fill:#ffffff"
       transform="matrix(1.1825511,0,0,1.1887078,-13.501429,-10.946279)"
       id="g862">
      <g
         style="font-style:normal;font-weight:normal;font-size:12.8261px;line-height:1.25;font-family:sans-serif;fill:#ffffff;fill-opacity:1;stroke:none;stroke-width:0.320654"
         id="text32"
         transform="matrix(1.7786005,0,0,2.020235,-49.90543,-43.100266)"
         aria-label="x" />
    </g>
    <path
       style="fill:#5851db;stroke:#000000;stroke-width:0;stroke-linecap:butt;stroke-linejoin:miter;stroke-opacity:1;stroke-miterlimit:4;stroke-dasharray:none;fill-opacity:1"
       d="M 53.164023,81.396816 94.02122,41.42842 v 39.968396 z"
       id="path1162" />
    <g
       style="fill:#ffffff"
       transform="matrix(0.07654853,0,0,0.07599866,64.165023,52.949255)"
       id="g1635">
      <path
         style="fill:#ffffff"
         d="m 127.99975,23.06353 c 34.17763,0 38.22564,0.130073 51.72273,0.745886 12.47987,0.569577 19.25737,2.654806 23.76826,4.407232 5.9742,2.322002 10.23865,5.096211 14.71753,9.575084 4.47887,4.478873 7.25308,8.74333 9.57457,14.717532 1.75294,4.510883 3.83817,11.288386 4.40774,23.767752 0.61582,13.497592 0.74589,17.545599 0.74589,51.723234 0,34.17764 -0.13007,38.22565 -0.74589,51.72273 -0.56957,12.47988 -2.6548,19.25738 -4.40774,23.76826 -2.32149,5.97421 -5.0957,10.23866 -9.57457,14.71754 -4.47888,4.47887 -8.74333,7.25308 -14.71753,9.57457 -4.51089,1.75294 -11.28839,3.83817 -23.76826,4.40774 -13.49506,0.61581 -17.54306,0.74589 -51.72273,0.74589 -34.179676,0 -38.227683,-0.13008 -51.722734,-0.74589 -12.479874,-0.56957 -19.257377,-2.6548 -23.767752,-4.40774 -5.97471,-2.32149 -10.239167,-5.0957 -14.71804,-9.57457 -4.478874,-4.47888 -7.253082,-8.74333 -9.574576,-14.71754 -1.752934,-4.51088 -3.838164,-11.28838 -4.40774,-23.76775 -0.615813,-13.49759 -0.745886,-17.5456 -0.745886,-51.72324 0,-34.177635 0.130073,-38.225642 0.745886,-51.722726 0.569576,-12.479874 2.654806,-19.257377 4.40774,-23.76826 2.321494,-5.974202 5.095702,-10.238659 9.574576,-14.717532 4.478873,-4.478873 8.74333,-7.253082 14.71804,-9.575084 4.510375,-1.752426 11.287878,-3.837655 23.767244,-4.407232 C 89.774099,23.193603 93.822107,23.06353 127.99975,23.06353 M 127.99975,0 C 93.236779,0 88.878325,0.14734807 75.225764,0.77027475 61.601148,1.3921852 52.296879,3.5556614 44.154628,6.7200883 35.737497,9.9912155 28.599245,14.367961 21.483349,21.483857 14.367453,28.599753 9.9907074,35.738005 6.7195802,44.155136 3.5551533,52.297387 1.3916771,61.601656 0.76976665,75.226272 0.14683998,88.878325 0,93.237287 0,128.00025 c 0,34.76297 0.14683998,39.12193 0.76976665,52.77399 0.62191045,13.62461 2.78538665,22.92888 5.94981355,31.07113 3.2711272,8.41663 7.6478728,15.55538 14.7637688,22.67128 7.115896,7.1159 14.254148,11.49264 22.671279,14.76377 8.142251,3.16443 17.44652,5.3279 31.071136,5.94981 C 88.878325,255.85316 93.236779,256 127.99975,256 c 34.76296,0 39.12192,-0.14684 52.77398,-0.76977 13.62461,-0.62191 22.92888,-2.78538 31.07113,-5.94981 8.41714,-3.27113 15.55539,-7.64787 22.67128,-14.76377 7.1159,-7.1159 11.49264,-14.25415 14.76377,-22.67128 3.16443,-8.14225 5.3279,-17.44652 5.94981,-31.07113 C 255.85265,167.12218 256,162.76322 256,128.00025 256,93.237287 255.85265,88.878325 255.22972,75.226272 254.60781,61.601656 252.44434,52.297387 249.27991,44.155136 246.00878,35.738005 241.63204,28.599753 234.51614,21.483857 227.40025,14.367961 220.262,9.9912155 211.84486,6.7200883 203.70261,3.5556614 194.39834,1.3921852 180.77373,0.77027475 167.12167,0.14734807 162.76271,0 127.99975,0 Z m 0,62.270311 c -36.301488,0 -65.729947,29.428459 -65.729947,65.729939 0,36.30149 29.428459,65.72995 65.729947,65.72995 36.30148,0 65.72994,-29.42846 65.72994,-65.72995 0,-36.30148 -29.42846,-65.729939 -65.72994,-65.729939 z m 0,108.396859 c -23.56401,0 -42.666925,-19.10291 -42.666925,-42.66692 0,-23.564 19.102915,-42.666917 42.666925,-42.666917 23.564,0 42.66692,19.102917 42.66692,42.666917 0,23.56401 -19.10292,42.66692 -42.66692,42.66692 z M 211.68634,59.673429 c 0,8.483184 -6.87659,15.360274 -15.35977,15.360274 -8.48318,0 -15.36027,-6.87709 -15.36027,-15.360274 0,-8.483185 6.87709,-15.359767 15.36027,-15.359767 8.48318,0 15.35977,6.876582 15.35977,15.359767 z"
         fill="#0a0a08"
         id="path1633" />
    </g>
  </g>
</svg>
